<svg id="visual" viewBox="0 0 900 600" width="900" height="600" xmlns="http://www.w3.org/2000/svg" xmlns:xlink="http://www.w3.org/1999/xlink" version="1.1"><rect x="0" y="0" width="900" height="600" fill="#000000"></rect><path d="M0 353L21.5 354.8C43 356.7 86 360.3 128.8 360.3C171.7 360.3 214.3 356.7 257.2 350.2C300 343.7 343 334.3 385.8 340C428.7 345.7 471.3 366.3 514.2 375.5C557 384.7 600 382.3 642.8 372.5C685.7 362.7 728.3 345.3 771.2 353C814 360.7 857 393.3 878.5 409.7L900 426L900 601L878.5 601C857 601 814 601 771.2 601C728.3 601 685.7 601 642.8 601C600 601 557 601 514.2 601C471.3 601 428.7 601 385.8 601C343 601 300 601 257.2 601C214.3 601 171.7 601 128.8 601C86 601 43 601 21.5 601L0 601Z" fill="#ff2d2d"></path><path d="M0 448L21.5 436.5C43 425 86 402 128.8 399.3C171.7 396.7 214.3 414.3 257.2 420.3C300 426.3 343 420.7 385.8 414C428.7 407.3 471.3 399.7 514.2 404C557 408.3 600 424.7 642.8 429.2C685.7 433.7 728.3 426.3 771.2 418.2C814 410 857 401 878.5 396.5L900 392L900 601L878.5 601C857 601 814 601 771.2 601C728.3 601 685.7 601 642.8 601C600 601 557 601 514.2 601C471.3 601 428.7 601 385.8 601C343 601 300 601 257.2 601C214.3 601 171.7 601 128.8 601C86 601 43 601 21.5 601L0 601Z" fill="#d81f1d"></path><path d="M0 481L21.5 484C43 487 86 493 128.8 488.2C171.7 483.3 214.3 467.7 257.2 468.3C300 469 343 486 385.8 485.8C428.7 485.7 471.3 468.3 514.2 458.5C557 448.7 600 446.3 642.8 451C685.7 455.7 728.3 467.3 771.2 477C814 486.7 857 494.3 878.5 498.2L900 502L900 601L878.5 601C857 601 814 601 771.2 601C728.3 601 685.7 601 642.8 601C600 601 557 601 514.2 601C471.3 601 428.7 601 385.8 601C343 601 300 601 257.2 601C214.3 601 171.7 601 128.8 601C86 601 43 601 21.5 601L0 601Z" fill="#b3100f"></path><path d="M0 552L21.5 549.7C43 547.3 86 542.7 128.8 542.8C171.7 543 214.3 548 257.2 541.8C300 535.7 343 518.3 385.8 508.8C428.7 499.3 471.3 497.7 514.2 502.5C557 507.3 600 518.7 642.8 523.5C685.7 528.3 728.3 526.7 771.2 529C814 531.3 857 537.7 878.5 540.8L900 544L900 601L878.5 601C857 601 814 601 771.2 601C728.3 601 685.7 601 642.8 601C600 601 557 601 514.2 601C471.3 601 428.7 601 385.8 601C343 601 300 601 257.2 601C214.3 601 171.7 601 128.8 601C86 601 43 601 21.5 601L0 601Z" fill="#8f0000"></path></svg>