<svg id="visual" viewBox="0 0 900 600" width="900" height="600" xmlns="http://www.w3.org/2000/svg" xmlns:xlink="http://www.w3.org/1999/xlink" version="1.1"><rect x="0" y="0" width="900" height="600" fill="#000000"></rect><path d="M0 233L21.5 238.8C43 244.7 86 256.3 128.8 263.2C171.7 270 214.3 272 257.2 266.8C300 261.7 343 249.3 385.8 238.7C428.7 228 471.3 219 514.2 222.5C557 226 600 242 642.8 247.5C685.7 253 728.3 248 771.2 255.3C814 262.7 857 282.3 878.5 292.2L900 302L900 601L878.5 601C857 601 814 601 771.2 601C728.3 601 685.7 601 642.8 601C600 601 557 601 514.2 601C471.3 601 428.7 601 385.8 601C343 601 300 601 257.2 601C214.3 601 171.7 601 128.8 601C86 601 43 601 21.5 601L0 601Z" fill="#ff2d2d"></path><path d="M0 370L21.5 364.2C43 358.3 86 346.7 128.8 333C171.7 319.3 214.3 303.7 257.2 298.8C300 294 343 300 385.8 314.5C428.7 329 471.3 352 514.2 356.8C557 361.7 600 348.3 642.8 342.5C685.7 336.7 728.3 338.3 771.2 336C814 333.7 857 327.3 878.5 324.2L900 321L900 601L878.5 601C857 601 814 601 771.2 601C728.3 601 685.7 601 642.8 601C600 601 557 601 514.2 601C471.3 601 428.7 601 385.8 601C343 601 300 601 257.2 601C214.3 601 171.7 601 128.8 601C86 601 43 601 21.5 601L0 601Z" fill="#e22321"></path><path d="M0 454L21.5 447.8C43 441.7 86 429.3 128.8 429.8C171.7 430.3 214.3 443.7 257.2 435.2C300 426.7 343 396.3 385.8 378.7C428.7 361 471.3 356 514.2 367.7C557 379.3 600 407.7 642.8 420C685.7 432.3 728.3 428.7 771.2 424.8C814 421 857 417 878.5 415L900 413L900 601L878.5 601C857 601 814 601 771.2 601C728.3 601 685.7 601 642.8 601C600 601 557 601 514.2 601C471.3 601 428.7 601 385.8 601C343 601 300 601 257.2 601C214.3 601 171.7 601 128.8 601C86 601 43 601 21.5 601L0 601Z" fill="#c51816"></path><path d="M0 441L21.5 448C43 455 86 469 128.8 465.8C171.7 462.7 214.3 442.3 257.2 438.8C300 435.3 343 448.7 385.8 459.8C428.7 471 471.3 480 514.2 485.2C557 490.3 600 491.7 642.8 492.5C685.7 493.3 728.3 493.7 771.2 490C814 486.3 857 478.7 878.5 474.8L900 471L900 601L878.5 601C857 601 814 601 771.2 601C728.3 601 685.7 601 642.8 601C600 601 557 601 514.2 601C471.3 601 428.7 601 385.8 601C343 601 300 601 257.2 601C214.3 601 171.7 601 128.8 601C86 601 43 601 21.5 601L0 601Z" fill="#aa0c0b"></path><path d="M0 534L21.5 536C43 538 86 542 128.8 541C171.7 540 214.3 534 257.2 535.7C300 537.3 343 546.7 385.8 545.3C428.7 544 471.3 532 514.2 532C557 532 600 544 642.8 537.5C685.7 531 728.3 506 771.2 500.8C814 495.7 857 510.3 878.5 517.7L900 525L900 601L878.5 601C857 601 814 601 771.2 601C728.3 601 685.7 601 642.8 601C600 601 557 601 514.2 601C471.3 601 428.7 601 385.8 601C343 601 300 601 257.2 601C214.3 601 171.7 601 128.8 601C86 601 43 601 21.5 601L0 601Z" fill="#8f0000"></path></svg>